<svg width="389" height="382" viewBox="0 0 389 382" fill="none" xmlns="http://www.w3.org/2000/svg">
<path d="M98.9219 156.67V380.89H133.659V156.67H98.9219ZM102.08 159.829H130.503V377.73H102.08V159.829Z" fill="black"/>
<path d="M100.5 188.324V191.358H132.096V188.324H100.5Z" fill="black"/>
<path d="M100.5 219.92V222.955H132.096V219.92H100.5Z" fill="black"/>
<path d="M100.5 251.337V254.551H132.096V251.337H100.5Z" fill="black"/>
<path d="M100.5 282.929V286.142H132.096V282.929H100.5Z" fill="black"/>
<path d="M100.5 314.525V317.739H132.096V314.525H100.5Z" fill="black"/>
<path d="M100.5 346.129V349.343H132.096V346.129H100.5Z" fill="black"/>
<path d="M100.5 346.129V349.343H132.096V346.129H100.5Z" fill="black"/>
<path d="M101.572 157.086L99.4297 159.407L128.348 189.931L99.4297 220.277L101.572 222.419L131.739 191.002L132.811 189.753L131.739 188.682L101.572 157.086Z" fill="black"/>
<path d="M102.643 220.274L100.322 222.416L128.705 252.941L100.322 283.465L99.4297 284.536L100.322 285.607L129.062 316.489L99.43 346.657L101.572 348.799L132.454 317.56L133.525 316.489L132.454 315.418L103.714 284.536L132.097 254.012L132.989 252.941L132.097 251.87L102.643 220.274Z" fill="black"/>
<path d="M101.572 349.709L99.4297 352.03L131.025 380.412L133.168 378.091L101.572 349.709Z" fill="black"/>
<path d="M106.812 151.933H125.761V158.249H106.812V151.933Z" fill="black"/>
<path d="M81.2969 149.869H150.773V153.027H81.2969V149.869Z" fill="black"/>
<path d="M129.422 87.644V148.159H169.586L169.943 147.445L181.725 122.811L181.903 122.276L181.725 121.74L169.943 88.5377L169.586 87.6451L129.422 87.644ZM132.099 90.3216H167.622L179.047 122.096L167.801 145.48H132.099V90.3216Z" fill="black"/>
<path d="M0 81.395V84.0726H388.43V81.395H0Z" fill="black"/>
<path d="M106.93 127.988V130.844H125.137V127.988H106.93Z" fill="black"/>
<path d="M106.931 85.6449C106.805 85.6866 106.684 85.7476 106.574 85.8234C106.119 86.0718 105.842 86.5553 105.86 87.073V149.37C105.865 149.791 106.062 150.185 106.396 150.441C106.449 150.507 106.509 150.566 106.574 150.62C106.738 150.717 106.921 150.776 107.11 150.798C107.169 150.803 107.229 150.803 107.288 150.798H125.496C125.685 150.776 125.868 150.717 126.031 150.62C126.158 150.578 126.278 150.519 126.388 150.441C126.528 150.346 126.65 150.224 126.745 150.084C126.842 149.921 126.901 149.738 126.924 149.549C126.928 149.489 126.928 149.43 126.924 149.37V87.073C126.942 86.5553 126.665 86.0719 126.21 85.8235C126.1 85.7476 125.979 85.6866 125.853 85.6449C125.734 85.6301 125.615 85.6301 125.496 85.6449H107.288C107.169 85.6301 107.05 85.63 106.931 85.6449ZM108.716 88.3225H124.246V147.943H108.716V88.3225Z" fill="black"/>
<path d="M107.281 91.3955V94.0731C110.546 94.0731 125.311 94.2516 125.311 94.2516V91.574C125.311 91.574 110.595 91.3955 107.281 91.3955Z" fill="black"/>
<path d="M106.93 100.676V103.353H125.673V100.676H106.93Z" fill="black"/>
<path d="M106.93 109.781V112.458H125.852V109.781H106.93Z" fill="black"/>
<path d="M106.93 118.882V121.56H125.316V118.882H106.93Z" fill="black"/>
<path d="M106.93 137.268V139.946H125.316V137.268H106.93Z" fill="black"/>
<path d="M106.93 141.731V144.409H125.494V141.731H106.93Z" fill="black"/>
<path d="M173.617 49.2656V52.1217L361.549 52.693V49.9797L173.617 49.2656Z" fill="black"/>
<path d="M360.767 50.1567L358.625 51.9418L385.758 83.5376L387.722 81.7525L360.767 50.1567Z" fill="black"/>
<path d="M315.072 49.9775L312.93 51.7626L340.063 83.3584L342.026 81.5733L315.072 49.9775Z" fill="black"/>
<path d="M269.369 49.8027L267.227 51.5878L294.36 83.1836L296.323 81.3985L269.369 49.8027Z" fill="black"/>
<path d="M223.666 49.8027L221.523 51.5878L248.656 83.1836L250.62 81.3985L223.666 49.8027Z" fill="black"/>
<path d="M177.97 49.9775L175.828 51.7626L202.961 83.3584L204.925 81.5733L177.97 49.9775Z" fill="black"/>
<path d="M175.477 49.8027L148.344 81.3985L150.486 83.1836L177.619 51.5878L175.477 49.8027Z" fill="black"/>
<path d="M221.172 49.9775L194.039 81.5733L196.181 83.3584L223.314 51.7626L221.172 49.9775Z" fill="black"/>
<path d="M266.875 49.8027L239.742 81.3985L241.884 83.1836L269.017 51.5878L266.875 49.8027Z" fill="black"/>
<path d="M312.563 49.8027L285.43 81.3985L287.572 83.1836L314.705 51.5878L312.563 49.8027Z" fill="black"/>
<path d="M358.266 50.6938L331.133 82.111L333.275 83.8961L360.408 52.4789L358.266 50.6938Z" fill="black"/>
<path d="M27.3125 49.6235V52.3011H109.603V49.6235H27.3125Z" fill="black"/>
<path d="M27.8517 49.4443L0.71875 81.0401L2.86083 82.8252L29.8152 51.2294L27.8517 49.4443Z" fill="black"/>
<path d="M55.1575 49.4443L28.2031 81.0401L30.1667 82.8252L57.2997 51.2294L55.1575 49.4443Z" fill="black"/>
<path d="M82.6486 49.4443L55.5156 81.0401L57.6577 82.8252L84.6121 51.2294L82.6486 49.4443Z" fill="black"/>
<path d="M109.962 49.4443L83.0078 81.0401L84.9714 82.8252L112.104 51.2294L109.962 49.4443Z" fill="black"/>
<path d="M84.9714 49.4443L83.0078 51.2294L109.962 82.8252L112.104 81.0401L84.9714 49.4443Z" fill="black"/>
<path d="M57.6577 49.4443L55.5156 51.2294L82.6486 82.8252L84.6122 81.0401L57.6577 49.4443Z" fill="black"/>
<path d="M30.1667 49.4443L28.2031 51.2294L55.1575 82.8252L57.2996 81.0401L30.1667 49.4443Z" fill="black"/>
<path d="M30.1667 49.4443L28.2031 51.2294L55.1575 82.8252L57.2996 81.0401L30.1667 49.4443Z" fill="black"/>
<path d="M112.099 0L109.422 0.357013V82.6471H112.099V8.38838L138.875 83.1841L141.374 82.2915L112.099 0Z" fill="black"/>
<path d="M111.569 63.1885L110.141 65.5091L137.452 82.1103L138.88 79.6112L111.569 63.1885Z" fill="black"/>
<path d="M132.81 63.3672L109.961 81.5747L111.568 83.7167L134.416 65.5093L132.81 63.3672Z" fill="black"/>
<path d="M111.569 49.4443L110.141 51.9434L132.989 65.5099L134.418 63.1893L111.569 49.4443Z" fill="black"/>
<path d="M128.168 49.6235L109.961 63.3686L111.568 65.5107L129.954 51.7656L128.168 49.6235Z" fill="black"/>
<path d="M111.568 34.0942L109.961 36.2363L126.384 47.3035L127.812 44.9829L111.568 34.0942Z" fill="black"/>
<path d="M123.706 35.876L109.961 47.6576L111.746 49.6212L125.313 38.0181L123.706 35.876Z" fill="black"/>
<path d="M109.778 0L109.492 0.856831L269.434 51.1243L269.72 50.2674L118.061 2.57049L356.26 51.1243L356.545 50.2674L109.778 0Z" fill="black"/>
<path d="M109.36 0L45.3828 50.2674L45.954 51.1243L109.931 0.856831L109.36 0Z" fill="black"/>
<path d="M4.24995 86.8254C4.24251 86.873 4.24251 86.9206 4.24995 86.9682C4.20234 86.9608 4.15474 86.9608 4.10714 86.9682C4.0997 87.0158 4.0997 87.0634 4.10714 87.111C4.0997 87.1586 4.0997 87.2062 4.10714 87.2538V119.242C4.0997 119.29 4.0997 119.337 4.10714 119.385C4.0997 119.433 4.0997 119.48 4.10714 119.528C4.15474 119.535 4.20234 119.535 4.24995 119.528C4.24251 119.575 4.24251 119.623 4.24995 119.671C4.29755 119.678 4.34515 119.678 4.39275 119.671C4.44035 119.678 4.48795 119.678 4.53556 119.671H22.8146C22.8622 119.678 22.9098 119.678 22.9574 119.671C23.005 119.678 23.0526 119.678 23.1002 119.671C23.1077 119.623 23.1077 119.575 23.1002 119.528C23.1478 119.535 23.1954 119.535 23.243 119.528C23.2505 119.48 23.2505 119.433 23.243 119.385C23.2505 119.337 23.2505 119.29 23.243 119.242V87.2538C23.2505 87.2062 23.2505 87.1586 23.243 87.111C23.2505 87.0634 23.2505 87.0158 23.243 86.9682C23.1954 86.9608 23.1478 86.9608 23.1002 86.9682C23.1077 86.9206 23.1077 86.873 23.1002 86.8254C23.0526 86.818 23.005 86.818 22.9574 86.8254C22.9098 86.818 22.8622 86.818 22.8146 86.8254H4.53556C4.48795 86.818 4.44035 86.818 4.39275 86.8254C4.34515 86.818 4.29755 86.818 4.24995 86.8254ZM4.96397 87.6822H22.3862V118.814H4.96397V87.6822Z" fill="black"/>
<path d="M27.1406 86.7531C27.1287 86.8126 27.1287 86.8721 27.1406 86.9316C27.0811 86.9197 27.0216 86.9197 26.9621 86.9316C26.9501 86.9911 26.9501 87.0506 26.9621 87.1101C26.9501 87.1696 26.9501 87.2291 26.9621 87.2886V119.241C26.9501 119.301 26.9501 119.36 26.9621 119.42C27.0037 119.494 27.0662 119.557 27.1406 119.598C27.1822 119.673 27.2447 119.735 27.3191 119.777H45.7051C45.7795 119.735 45.842 119.673 45.8837 119.598C45.9432 119.61 46.0027 119.61 46.0622 119.598C46.0741 119.539 46.0741 119.479 46.0622 119.42C46.0741 119.36 46.0741 119.301 46.0622 119.241V87.2886C46.0741 87.2291 46.0741 87.1696 46.0622 87.1101C46.0741 87.0506 46.0741 86.9911 46.0622 86.9316C46.0027 86.9197 45.9432 86.9197 45.8837 86.9316C45.842 86.8572 45.7795 86.7947 45.7051 86.7531H27.3191C27.2596 86.7412 27.2001 86.7412 27.1406 86.7531ZM27.8546 87.6456H45.1698V118.706H27.8546V87.6456Z" fill="black"/>
<path d="M133.919 345.863L131.062 349.576L166.907 377.423H132.491V381.993H173.618C174.629 382.036 175.548 381.411 175.877 380.454C176.207 379.498 175.869 378.44 175.047 377.851L133.919 345.863Z" fill="black"/>
<path d="M100.141 345.406C99.7423 345.486 99.3735 345.671 99.07 345.941L58.0144 377.894C57.226 378.492 56.9107 379.53 57.2364 380.466C57.5622 381.401 58.4517 382.02 59.4425 381.999H100.498C101.78 381.999 102.819 380.961 102.819 379.679C102.819 378.397 101.78 377.358 100.498 377.358H66.0462L101.926 349.511C102.814 348.888 103.14 347.726 102.709 346.731C102.276 345.736 101.203 345.183 100.141 345.406Z" fill="black"/>
<path d="M140.484 88.1084V129.522H178.185V127.237H142.769V88.1084H140.484Z" fill="black"/>
<path d="M77.4742 342.893C77.4623 342.952 77.4623 343.012 77.4742 343.071C77.4147 343.059 77.3552 343.059 77.2957 343.071C77.2838 343.131 77.2838 343.19 77.2957 343.25C77.2213 343.291 77.1588 343.354 77.1172 343.428V375.381C77.1588 375.455 77.2213 375.518 77.2957 375.559C77.2838 375.619 77.2838 375.678 77.2957 375.738C77.3552 375.75 77.4147 375.75 77.4742 375.738C77.5159 375.812 77.5783 375.875 77.6527 375.916H95.8602C95.9197 375.928 95.9792 375.928 96.0387 375.916C96.0506 375.857 96.0506 375.797 96.0387 375.738C96.0982 375.75 96.1577 375.75 96.2172 375.738C96.2916 375.696 96.3541 375.634 96.3957 375.559C96.4076 375.5 96.4076 375.44 96.3957 375.381V343.428C96.4076 343.369 96.4076 343.309 96.3957 343.25C96.3541 343.175 96.2916 343.113 96.2172 343.071C96.1756 342.997 96.1131 342.934 96.0387 342.893C95.9792 342.881 95.9197 342.881 95.8602 342.893H77.6527C77.5932 342.881 77.5337 342.881 77.4742 342.893ZM78.1882 343.785H95.5035V374.845H78.1882V343.785Z" fill="black"/>
<path d="M54.6226 342.893C54.6107 342.952 54.6107 343.012 54.6226 343.071C54.5631 343.059 54.5036 343.059 54.4441 343.071C54.4322 343.131 54.4322 343.19 54.4441 343.25C54.3698 343.291 54.3073 343.354 54.2656 343.428V375.381C54.3073 375.455 54.3698 375.518 54.4441 375.559C54.4322 375.619 54.4322 375.678 54.4441 375.738C54.5036 375.75 54.5631 375.75 54.6226 375.738C54.6643 375.812 54.7268 375.875 54.8011 375.916H73.0086C73.0681 375.928 73.1276 375.928 73.1871 375.916C73.199 375.857 73.199 375.797 73.1871 375.738C73.2466 375.75 73.3061 375.75 73.3656 375.738C73.44 375.696 73.5025 375.634 73.5441 375.559C73.556 375.5 73.556 375.44 73.5441 375.381V343.428C73.556 343.369 73.556 343.309 73.5441 343.25C73.5025 343.175 73.44 343.113 73.3656 343.071C73.324 342.997 73.2615 342.934 73.1871 342.893C73.1276 342.881 73.0681 342.881 73.0086 342.893H54.8011C54.7416 342.881 54.6821 342.881 54.6226 342.893ZM55.3367 343.785H72.6519V374.845H55.3367V343.785Z" fill="black"/>
<path d="M136.555 342.893C136.543 342.952 136.543 343.012 136.555 343.071C136.495 343.059 136.436 343.059 136.376 343.071C136.364 343.131 136.364 343.19 136.376 343.25C136.364 343.309 136.364 343.369 136.376 343.428V375.381C136.364 375.44 136.364 375.5 136.376 375.559C136.418 375.634 136.48 375.696 136.555 375.738C136.614 375.75 136.674 375.75 136.733 375.738C136.721 375.797 136.721 375.857 136.733 375.916H155.119C155.194 375.875 155.256 375.812 155.298 375.738C155.357 375.75 155.417 375.75 155.476 375.738C155.488 375.678 155.488 375.619 155.476 375.559C155.488 375.5 155.488 375.44 155.476 375.381V343.428C155.488 343.369 155.488 343.309 155.476 343.25C155.488 343.19 155.488 343.131 155.476 343.071C155.417 343.059 155.357 343.059 155.298 343.071C155.31 343.012 155.31 342.952 155.298 342.893C155.238 342.881 155.179 342.881 155.119 342.893H136.733C136.674 342.881 136.614 342.881 136.555 342.893ZM137.269 343.785H154.584V374.845H137.269V343.785Z" fill="black"/>
<path d="M158.693 342.893C158.681 342.952 158.681 343.012 158.693 343.071C158.633 343.059 158.574 343.059 158.514 343.071C158.503 343.131 158.503 343.19 158.514 343.25C158.44 343.291 158.378 343.354 158.336 343.428V375.381C158.378 375.455 158.44 375.518 158.514 375.559C158.503 375.619 158.503 375.678 158.514 375.738C158.574 375.75 158.633 375.75 158.693 375.738C158.735 375.812 158.797 375.875 158.871 375.916H177.079C177.138 375.928 177.198 375.928 177.257 375.916C177.269 375.857 177.269 375.797 177.257 375.738C177.317 375.75 177.376 375.75 177.436 375.738C177.51 375.696 177.573 375.634 177.614 375.559C177.626 375.5 177.626 375.44 177.614 375.381V343.428C177.626 343.369 177.626 343.309 177.614 343.25C177.573 343.175 177.51 343.113 177.436 343.071C177.394 342.997 177.332 342.934 177.257 342.893C177.198 342.881 177.138 342.881 177.079 342.893H158.871C158.812 342.881 158.752 342.881 158.693 342.893ZM159.407 343.785H176.722V374.845H159.407V343.785Z" fill="black"/>
<path d="M77.4753 308.46C77.4009 308.501 77.3385 308.564 77.2968 308.638C77.2849 308.698 77.2849 308.757 77.2968 308.817C77.2373 308.805 77.1778 308.805 77.1183 308.817C77.1064 308.876 77.1064 308.936 77.1183 308.995V340.948C77.16 341.022 77.2224 341.085 77.2968 341.126C77.2849 341.186 77.2849 341.245 77.2968 341.305C77.3563 341.317 77.4158 341.317 77.4753 341.305C77.5348 341.317 77.5943 341.317 77.6538 341.305H95.8613C95.9208 341.317 95.9803 341.317 96.0398 341.305C96.0993 341.317 96.1588 341.317 96.2183 341.305C96.2927 341.263 96.3552 341.201 96.3968 341.126C96.4087 341.067 96.4087 341.007 96.3968 340.948V308.995C96.4087 308.936 96.4087 308.876 96.3968 308.817C96.4087 308.757 96.4087 308.698 96.3968 308.638C96.3373 308.626 96.2778 308.626 96.2183 308.638C96.2302 308.579 96.2302 308.519 96.2183 308.46C96.1588 308.448 96.0993 308.448 96.0398 308.46C95.9803 308.448 95.9208 308.448 95.8613 308.46H77.6538C77.5943 308.448 77.5348 308.448 77.4753 308.46ZM78.1893 309.352H95.5046V340.412H78.1893V309.352Z" fill="black"/>
<path d="M54.6238 308.46C54.5494 308.501 54.4869 308.564 54.4452 308.638C54.4333 308.698 54.4333 308.757 54.4452 308.817C54.3857 308.805 54.3262 308.805 54.2667 308.817C54.2548 308.876 54.2548 308.936 54.2667 308.995V340.948C54.3084 341.022 54.3709 341.085 54.4452 341.126C54.4333 341.186 54.4333 341.245 54.4452 341.305C54.5047 341.317 54.5642 341.317 54.6238 341.305C54.6833 341.317 54.7428 341.317 54.8023 341.305H73.0097C73.0692 341.317 73.1287 341.317 73.1882 341.305C73.2477 341.317 73.3072 341.317 73.3667 341.305C73.4411 341.263 73.5036 341.201 73.5453 341.126C73.5572 341.067 73.5572 341.007 73.5453 340.948V308.995C73.5572 308.936 73.5572 308.876 73.5453 308.817C73.5572 308.757 73.5572 308.698 73.5453 308.638C73.4858 308.626 73.4262 308.626 73.3667 308.638C73.3786 308.579 73.3786 308.519 73.3667 308.46C73.3072 308.448 73.2477 308.448 73.1882 308.46C73.1287 308.448 73.0692 308.448 73.0097 308.46H54.8023C54.7428 308.448 54.6833 308.448 54.6238 308.46ZM55.3378 309.352H72.653V340.412H55.3378V309.352Z" fill="black"/>
<path d="M136.555 308.46C136.543 308.519 136.543 308.579 136.555 308.638C136.495 308.626 136.436 308.626 136.376 308.638C136.364 308.698 136.364 308.757 136.376 308.817C136.364 308.876 136.364 308.936 136.376 308.995V340.948C136.364 341.007 136.364 341.067 136.376 341.126C136.418 341.201 136.48 341.263 136.555 341.305C136.614 341.317 136.674 341.317 136.733 341.305H155.119C155.179 341.317 155.238 341.317 155.298 341.305C155.357 341.317 155.417 341.317 155.476 341.305C155.488 341.245 155.488 341.186 155.476 341.126C155.488 341.067 155.488 341.007 155.476 340.948V308.995C155.488 308.936 155.488 308.876 155.476 308.817C155.488 308.757 155.488 308.698 155.476 308.638C155.435 308.564 155.372 308.501 155.298 308.46C155.238 308.448 155.179 308.448 155.119 308.46H136.733C136.674 308.448 136.614 308.448 136.555 308.46ZM137.269 309.352H154.584V340.412H137.269V309.352Z" fill="black"/>
<path d="M158.693 308.46C158.619 308.501 158.556 308.564 158.514 308.638C158.503 308.698 158.503 308.757 158.514 308.817C158.44 308.858 158.378 308.921 158.336 308.995V340.948C158.378 341.022 158.44 341.085 158.514 341.126C158.503 341.186 158.503 341.245 158.514 341.305C158.574 341.317 158.633 341.317 158.693 341.305C158.752 341.317 158.812 341.317 158.871 341.305H177.079C177.138 341.317 177.198 341.317 177.257 341.305C177.317 341.317 177.376 341.317 177.436 341.305C177.51 341.263 177.573 341.201 177.614 341.126C177.626 341.067 177.626 341.007 177.614 340.948V308.995C177.626 308.936 177.626 308.876 177.614 308.817C177.626 308.757 177.626 308.698 177.614 308.638C177.555 308.626 177.495 308.626 177.436 308.638C177.448 308.579 177.448 308.519 177.436 308.46C177.376 308.448 177.317 308.448 177.257 308.46C177.198 308.448 177.138 308.448 177.079 308.46H158.871C158.812 308.448 158.752 308.448 158.693 308.46ZM159.407 309.352H176.722V340.412H159.407V309.352Z" fill="black"/>
<path d="M304.354 78.3638C301.995 78.3638 300.07 80.2887 300.07 82.6479C300.07 85.0072 301.995 86.9321 304.354 86.9321H324.883C327.242 86.9321 329.167 85.0072 329.167 82.6479C329.167 80.2887 327.242 78.3638 324.883 78.3638H304.354ZM304.354 79.9704H324.883C326.321 79.9704 327.382 81.2095 327.382 82.6479C327.382 84.0864 326.321 85.147 324.883 85.147H304.354C302.916 85.147 301.677 84.0864 301.677 82.6479C301.677 81.2095 302.916 79.9704 304.354 79.9704Z" fill="black"/>
<path d="M314.676 89.3657C310.627 89.3657 307.25 92.7425 307.25 96.7916C307.25 100.841 310.627 104.075 314.676 104.075C318.725 104.075 321.959 100.841 321.959 96.7916C321.959 92.7424 318.725 89.3657 314.676 89.3657ZM314.676 91.6506C317.49 91.6506 319.674 93.9772 319.674 96.7916C319.674 99.606 317.49 101.79 314.676 101.79C311.861 101.79 309.535 99.606 309.535 96.7916C309.535 93.9772 311.861 91.6506 314.676 91.6506Z" fill="black"/>
<path d="M313.984 109.628C311.482 109.628 309.414 111.696 309.414 114.198C309.414 116.7 311.482 118.768 313.984 118.768C316.486 118.768 318.554 116.7 318.554 114.198C318.554 111.696 316.486 109.628 313.984 109.628ZM313.984 111.913C315.251 111.913 316.269 112.931 316.269 114.198C316.269 115.466 315.251 116.483 313.984 116.483C312.716 116.483 311.699 115.466 311.699 114.198C311.699 112.931 312.716 111.913 313.984 111.913Z" fill="black"/>
<path d="M315.656 117.024L312.117 117.936C312.117 117.936 312.132 127.605 312.527 131.348C313.285 136.021 311.137 140.429 308.332 140.492C305.998 140.223 305.015 139.256 304.539 137.396C303.727 133.005 300.658 133.358 300.887 137.396C300.853 139.132 300.951 141.152 302.028 142.988C306.62 150.399 316.511 146.2 316.294 137.054C316.463 135.073 316.392 132.904 316.179 130.891C315.754 126.867 315.656 117.024 315.656 117.024Z" fill="black"/>
<path d="M307.391 83.897V96.928H309.711V83.897H307.391Z" fill="black"/>
<path d="M319.171 84.7881L318.992 96.7479H321.313V84.7881H319.171Z" fill="black"/>
<path d="M313.818 101.388C313.752 101.44 313.691 101.501 313.639 101.566C313.406 101.679 313.217 101.868 313.104 102.102C313.001 102.262 312.939 102.447 312.925 102.637V114.597C312.921 114.657 312.921 114.716 312.925 114.776C313 115.076 313.193 115.333 313.461 115.49C313.513 115.555 313.574 115.616 313.639 115.668C313.758 115.687 313.877 115.687 313.996 115.668C314.056 115.673 314.115 115.673 314.175 115.668C314.365 115.655 314.55 115.592 314.71 115.49C314.776 115.437 314.837 115.376 314.889 115.311C314.954 115.259 315.015 115.198 315.067 115.133C315.087 115.014 315.087 114.895 315.067 114.776C315.133 114.723 315.194 114.662 315.246 114.597V102.637C315.265 102.518 315.265 102.399 315.246 102.28C315.25 102.221 315.25 102.161 315.246 102.102C315.194 102.036 315.133 101.975 315.067 101.923C315.015 101.858 314.954 101.797 314.889 101.745C314.837 101.679 314.776 101.618 314.71 101.566C314.55 101.463 314.365 101.401 314.175 101.388C314.115 101.383 314.056 101.383 313.996 101.388C313.937 101.383 313.877 101.383 313.818 101.388Z" fill="black"/>
<path d="M4.24995 86.8254C4.24251 86.873 4.24251 86.9206 4.24995 86.9682C4.20234 86.9608 4.15474 86.9608 4.10714 86.9682C4.0997 87.0158 4.0997 87.0634 4.10714 87.111C4.0997 87.1586 4.0997 87.2062 4.10714 87.2538V119.242C4.0997 119.29 4.0997 119.337 4.10714 119.385C4.0997 119.433 4.0997 119.48 4.10714 119.528C4.15474 119.535 4.20234 119.535 4.24995 119.528C4.24251 119.575 4.24251 119.623 4.24995 119.671C4.29755 119.678 4.34515 119.678 4.39275 119.671C4.44035 119.678 4.48795 119.678 4.53556 119.671H22.8146C22.8622 119.678 22.9098 119.678 22.9574 119.671C23.005 119.678 23.0526 119.678 23.1002 119.671C23.1077 119.623 23.1077 119.575 23.1002 119.528C23.1478 119.535 23.1954 119.535 23.243 119.528C23.2505 119.48 23.2505 119.433 23.243 119.385C23.2505 119.337 23.2505 119.29 23.243 119.242V87.2538C23.2505 87.2062 23.2505 87.1586 23.243 87.111C23.2505 87.0634 23.2505 87.0158 23.243 86.9682C23.1954 86.9608 23.1478 86.9608 23.1002 86.9682C23.1077 86.9206 23.1077 86.873 23.1002 86.8254C23.0526 86.818 23.005 86.818 22.9574 86.8254C22.9098 86.818 22.8622 86.818 22.8146 86.8254H4.53556C4.48795 86.818 4.44035 86.818 4.39275 86.8254C4.34515 86.818 4.29755 86.818 4.24995 86.8254ZM4.96397 87.6822H22.3862V118.814H4.96397V87.6822Z" fill="black"/>
<path d="M27.1406 86.7531C27.1287 86.8126 27.1287 86.8721 27.1406 86.9316C27.0811 86.9197 27.0216 86.9197 26.9621 86.9316C26.9501 86.9911 26.9501 87.0506 26.9621 87.1101C26.9501 87.1696 26.9501 87.2291 26.9621 87.2886V119.241C26.9501 119.301 26.9501 119.36 26.9621 119.42C27.0037 119.494 27.0662 119.557 27.1406 119.598C27.1822 119.673 27.2447 119.735 27.3191 119.777H45.7051C45.7795 119.735 45.842 119.673 45.8837 119.598C45.9432 119.61 46.0027 119.61 46.0622 119.598C46.0741 119.539 46.0741 119.479 46.0622 119.42C46.0741 119.36 46.0741 119.301 46.0622 119.241V87.2886C46.0741 87.2291 46.0741 87.1696 46.0622 87.1101C46.0741 87.0506 46.0741 86.9911 46.0622 86.9316C46.0027 86.9197 45.9432 86.9197 45.8837 86.9316C45.842 86.8572 45.7795 86.7947 45.7051 86.7531H27.3191C27.2596 86.7412 27.2001 86.7412 27.1406 86.7531ZM27.8546 87.6456H45.1698V118.706H27.8546V87.6456Z" fill="black"/>
<path d="M77.4742 342.893C77.4623 342.952 77.4623 343.012 77.4742 343.071C77.4147 343.059 77.3552 343.059 77.2957 343.071C77.2838 343.131 77.2838 343.19 77.2957 343.25C77.2213 343.291 77.1588 343.354 77.1172 343.428V375.381C77.1588 375.455 77.2213 375.518 77.2957 375.559C77.2838 375.619 77.2838 375.678 77.2957 375.738C77.3552 375.75 77.4147 375.75 77.4742 375.738C77.5159 375.812 77.5783 375.875 77.6527 375.916H95.8602C95.9197 375.928 95.9792 375.928 96.0387 375.916C96.0506 375.857 96.0506 375.797 96.0387 375.738C96.0982 375.75 96.1577 375.75 96.2172 375.738C96.2916 375.696 96.3541 375.634 96.3957 375.559C96.4076 375.5 96.4076 375.44 96.3957 375.381V343.428C96.4076 343.369 96.4076 343.309 96.3957 343.25C96.3541 343.175 96.2916 343.113 96.2172 343.071C96.1756 342.997 96.1131 342.934 96.0387 342.893C95.9792 342.881 95.9197 342.881 95.8602 342.893H77.6527C77.5932 342.881 77.5337 342.881 77.4742 342.893ZM78.1882 343.785H95.5035V374.845H78.1882V343.785Z" fill="black"/>
<path d="M54.6226 342.893C54.6107 342.952 54.6107 343.012 54.6226 343.071C54.5631 343.059 54.5036 343.059 54.4441 343.071C54.4322 343.131 54.4322 343.19 54.4441 343.25C54.3698 343.291 54.3073 343.354 54.2656 343.428V375.381C54.3073 375.455 54.3698 375.518 54.4441 375.559C54.4322 375.619 54.4322 375.678 54.4441 375.738C54.5036 375.75 54.5631 375.75 54.6226 375.738C54.6643 375.812 54.7268 375.875 54.8011 375.916H73.0086C73.0681 375.928 73.1276 375.928 73.1871 375.916C73.199 375.857 73.199 375.797 73.1871 375.738C73.2466 375.75 73.3061 375.75 73.3656 375.738C73.44 375.696 73.5025 375.634 73.5441 375.559C73.556 375.5 73.556 375.44 73.5441 375.381V343.428C73.556 343.369 73.556 343.309 73.5441 343.25C73.5025 343.175 73.44 343.113 73.3656 343.071C73.324 342.997 73.2615 342.934 73.1871 342.893C73.1276 342.881 73.0681 342.881 73.0086 342.893H54.8011C54.7416 342.881 54.6821 342.881 54.6226 342.893ZM55.3367 343.785H72.6519V374.845H55.3367V343.785Z" fill="black"/>
<path d="M158.693 342.893C158.681 342.952 158.681 343.012 158.693 343.071C158.633 343.059 158.574 343.059 158.514 343.071C158.503 343.131 158.503 343.19 158.514 343.25C158.44 343.291 158.378 343.354 158.336 343.428V375.381C158.378 375.455 158.44 375.518 158.514 375.559C158.503 375.619 158.503 375.678 158.514 375.738C158.574 375.75 158.633 375.75 158.693 375.738C158.735 375.812 158.797 375.875 158.871 375.916H177.079C177.138 375.928 177.198 375.928 177.257 375.916C177.269 375.857 177.269 375.797 177.257 375.738C177.317 375.75 177.376 375.75 177.436 375.738C177.51 375.696 177.573 375.634 177.614 375.559C177.626 375.5 177.626 375.44 177.614 375.381V343.428C177.626 343.369 177.626 343.309 177.614 343.25C177.573 343.175 177.51 343.113 177.436 343.071C177.394 342.997 177.332 342.934 177.257 342.893C177.198 342.881 177.138 342.881 177.079 342.893H158.871C158.812 342.881 158.752 342.881 158.693 342.893ZM159.407 343.785H176.722V374.845H159.407V343.785Z" fill="black"/>
<path d="M77.4753 308.46C77.4009 308.501 77.3385 308.564 77.2968 308.638C77.2849 308.698 77.2849 308.757 77.2968 308.817C77.2373 308.805 77.1778 308.805 77.1183 308.817C77.1064 308.876 77.1064 308.936 77.1183 308.995V340.948C77.16 341.022 77.2224 341.085 77.2968 341.126C77.2849 341.186 77.2849 341.245 77.2968 341.305C77.3563 341.317 77.4158 341.317 77.4753 341.305C77.5348 341.317 77.5943 341.317 77.6538 341.305H95.8613C95.9208 341.317 95.9803 341.317 96.0398 341.305C96.0993 341.317 96.1588 341.317 96.2183 341.305C96.2927 341.263 96.3552 341.201 96.3968 341.126C96.4087 341.067 96.4087 341.007 96.3968 340.948V308.995C96.4087 308.936 96.4087 308.876 96.3968 308.817C96.4087 308.757 96.4087 308.698 96.3968 308.638C96.3373 308.626 96.2778 308.626 96.2183 308.638C96.2302 308.579 96.2302 308.519 96.2183 308.46C96.1588 308.448 96.0993 308.448 96.0398 308.46C95.9803 308.448 95.9208 308.448 95.8613 308.46H77.6538C77.5943 308.448 77.5348 308.448 77.4753 308.46ZM78.1893 309.352H95.5046V340.412H78.1893V309.352Z" fill="black"/>
<path d="M54.6238 308.46C54.5494 308.501 54.4869 308.564 54.4452 308.638C54.4333 308.698 54.4333 308.757 54.4452 308.817C54.3857 308.805 54.3262 308.805 54.2667 308.817C54.2548 308.876 54.2548 308.936 54.2667 308.995V340.948C54.3084 341.022 54.3709 341.085 54.4452 341.126C54.4333 341.186 54.4333 341.245 54.4452 341.305C54.5047 341.317 54.5642 341.317 54.6238 341.305C54.6833 341.317 54.7428 341.317 54.8023 341.305H73.0097C73.0692 341.317 73.1287 341.317 73.1882 341.305C73.2477 341.317 73.3072 341.317 73.3667 341.305C73.4411 341.263 73.5036 341.201 73.5453 341.126C73.5572 341.067 73.5572 341.007 73.5453 340.948V308.995C73.5572 308.936 73.5572 308.876 73.5453 308.817C73.5572 308.757 73.5572 308.698 73.5453 308.638C73.4858 308.626 73.4262 308.626 73.3667 308.638C73.3786 308.579 73.3786 308.519 73.3667 308.46C73.3072 308.448 73.2477 308.448 73.1882 308.46C73.1287 308.448 73.0692 308.448 73.0097 308.46H54.8023C54.7428 308.448 54.6833 308.448 54.6238 308.46ZM55.3378 309.352H72.653V340.412H55.3378V309.352Z" fill="black"/>
<path d="M158.693 308.46C158.619 308.501 158.556 308.564 158.514 308.638C158.503 308.698 158.503 308.757 158.514 308.817C158.44 308.858 158.378 308.921 158.336 308.995V340.948C158.378 341.022 158.44 341.085 158.514 341.126C158.503 341.186 158.503 341.245 158.514 341.305C158.574 341.317 158.633 341.317 158.693 341.305C158.752 341.317 158.812 341.317 158.871 341.305H177.079C177.138 341.317 177.198 341.317 177.257 341.305C177.317 341.317 177.376 341.317 177.436 341.305C177.51 341.263 177.573 341.201 177.614 341.126C177.626 341.067 177.626 341.007 177.614 340.948V308.995C177.626 308.936 177.626 308.876 177.614 308.817C177.626 308.757 177.626 308.698 177.614 308.638C177.555 308.626 177.495 308.626 177.436 308.638C177.448 308.579 177.448 308.519 177.436 308.46C177.376 308.448 177.317 308.448 177.257 308.46C177.198 308.448 177.138 308.448 177.079 308.46H158.871C158.812 308.448 158.752 308.448 158.693 308.46ZM159.407 309.352H176.722V340.412H159.407V309.352Z" fill="black"/>
<path d="M319.171 84.7881L318.992 96.7479H321.313V84.7881H319.171Z" fill="black"/>
<path d="M313.818 101.388C313.752 101.44 313.691 101.501 313.639 101.566C313.406 101.679 313.217 101.868 313.104 102.102C313.001 102.262 312.939 102.447 312.925 102.637V114.597C312.921 114.657 312.921 114.716 312.925 114.776C313 115.076 313.193 115.333 313.461 115.49C313.513 115.555 313.574 115.616 313.639 115.668C313.758 115.687 313.877 115.687 313.996 115.668C314.056 115.673 314.115 115.673 314.175 115.668C314.365 115.655 314.55 115.592 314.71 115.49C314.776 115.437 314.837 115.376 314.889 115.311C314.954 115.259 315.015 115.198 315.067 115.133C315.087 115.014 315.087 114.895 315.067 114.776C315.133 114.723 315.194 114.662 315.246 114.597V102.637C315.265 102.518 315.265 102.399 315.246 102.28C315.25 102.221 315.25 102.161 315.246 102.102C315.194 102.036 315.133 101.975 315.067 101.923C315.015 101.858 314.954 101.797 314.889 101.745C314.837 101.679 314.776 101.618 314.71 101.566C314.55 101.463 314.365 101.401 314.175 101.388C314.115 101.383 314.056 101.383 313.996 101.388C313.937 101.383 313.877 101.383 313.818 101.388Z" fill="black"/>
<path d="M136.805 343.502H155.084V375.49H136.805V343.502Z" fill="black"/>
<path d="M136.805 308.996H155.084V340.984H136.805V308.996Z" fill="black"/>
<path d="M304.24 79.2549H324.804C326.702 79.2549 328.231 80.7841 328.231 82.6822C328.231 84.5803 326.702 86.1095 324.804 86.1095H304.24C302.342 86.1095 300.812 84.5803 300.812 82.6822C300.812 80.7841 302.342 79.2549 304.24 79.2549Z" fill="black"/>
<path d="M320.817 96.8105C320.817 100.242 318.036 103.024 314.604 103.024C311.172 103.024 308.391 100.242 308.391 96.8105C308.391 93.3788 311.172 90.5972 314.604 90.5972C318.036 90.5972 320.817 93.3789 320.817 96.8105Z" fill="black"/>
<path d="M4.51562 87.3281H22.7947V119.317H4.51562V87.3281Z" fill="black"/>
<path d="M27.3594 87.3281H45.6384V119.317H27.3594V87.3281Z" fill="black"/>
<path d="M77.625 343.502H95.9041V375.49H77.625V343.502Z" fill="black"/>
<path d="M54.7812 343.502H73.0603V375.49H54.7812V343.502Z" fill="black"/>
<path d="M158.852 343.502H177.131V375.49H158.852V343.502Z" fill="black"/>
<path d="M77.625 308.996H95.9041V340.984H77.625V308.996Z" fill="black"/>
<path d="M54.7812 308.996H73.0603V340.984H54.7812V308.996Z" fill="black"/>
<path d="M158.852 308.996H177.131V340.984H158.852V308.996Z" fill="black"/>
</svg>
