<svg width="324" height="256" viewBox="0 0 324 256" fill="none" xmlns="http://www.w3.org/2000/svg">
<path d="M202.742 0C201.868 0.000480141 201.01 0.233038 200.255 0.674108C199.5 1.11518 198.876 1.74875 198.447 2.51006L138.58 4.74C138.118 4.21964 137.551 3.80303 136.916 3.51728C136.281 3.23153 135.593 3.08319 134.897 3.08211C133.907 3.08295 132.94 3.38142 132.122 3.93887C131.304 4.49632 130.673 5.28691 130.31 6.2078L52.2028 42.2102C51.6034 41.961 50.9607 41.8324 50.3115 41.8319C49.0411 41.8335 47.8203 42.3247 46.9032 43.2034C45.9861 44.0821 45.4435 45.2806 45.3882 46.5492L23.1724 70.3171L18.726 74.524C18.3921 74.4535 18.0518 74.4177 17.7105 74.4173C17.0625 74.4173 16.4209 74.5451 15.8222 74.7929C15.2236 75.0408 14.6796 75.4039 14.2215 75.8619C13.7633 76.3199 13.3998 76.8636 13.1519 77.462C12.9039 78.0604 12.7763 78.7017 12.7764 79.3494C12.7774 80.0126 12.9123 80.6688 13.1728 81.2787C13.4334 81.8885 13.8144 82.4396 14.293 82.8989L2.44662 125.294C1.70301 125.728 1.08594 126.349 0.656734 127.095C0.227523 127.841 0.00111261 128.687 0 129.547C0.000783119 130.697 0.403558 131.811 1.13868 132.695C1.87381 133.58 2.89506 134.18 4.02587 134.391L21.8003 177.536C21.0938 178.411 20.7078 179.501 20.7065 180.626C20.7064 181.274 20.834 181.915 21.082 182.513C21.3299 183.112 21.6934 183.655 22.1516 184.113C22.6098 184.571 23.1537 184.935 23.7524 185.183C24.351 185.431 24.9927 185.558 25.6407 185.558C26.3972 185.557 27.1434 185.382 27.8214 185.046C28.4994 184.71 29.0912 184.223 29.5509 183.623L71.418 193.166C71.5758 194.35 72.158 195.437 73.0566 196.224C73.9552 197.011 75.1091 197.445 76.304 197.447C77.0738 197.446 77.8328 197.265 78.5201 196.918C79.2075 196.571 79.8041 196.069 80.2624 195.45L110.62 203.879C111.021 204.72 111.651 205.432 112.439 205.93C113.227 206.428 114.14 206.693 115.073 206.694C116.381 206.694 117.636 206.174 118.562 205.249C119.487 204.324 120.007 203.07 120.007 201.762C120.005 201.596 119.994 201.429 119.975 201.263L133.524 189.413C134.221 189.772 134.993 189.96 135.777 189.961C136.566 189.961 137.343 189.771 138.044 189.408C138.744 189.045 139.348 188.52 139.803 187.876L156.141 193.417C156.434 194.45 157.056 195.36 157.913 196.008C158.769 196.655 159.814 197.006 160.889 197.006C161.243 197.005 161.597 196.965 161.943 196.888L193.922 229.967C193.87 230.25 193.843 230.537 193.842 230.825C193.842 232.133 194.361 233.387 195.287 234.312C196.212 235.237 197.467 235.756 198.776 235.756C199.117 235.754 199.457 235.717 199.791 235.645L215.145 248.988C215.043 249.384 214.991 249.791 214.989 250.2C214.989 251.508 215.509 252.762 216.434 253.687C217.359 254.612 218.614 255.132 219.923 255.132C221.184 255.13 222.396 254.645 223.311 253.779C224.225 252.912 224.774 251.728 224.843 250.47L238.894 247.44C239.353 248.05 239.948 248.545 240.631 248.886C241.314 249.228 242.068 249.406 242.831 249.406C243.479 249.406 244.121 249.279 244.72 249.031C245.318 248.783 245.862 248.42 246.321 247.962C246.779 247.504 247.142 246.96 247.39 246.362C247.638 245.763 247.766 245.122 247.766 244.475C247.766 243.167 247.246 241.912 246.32 240.987C245.395 240.062 244.14 239.543 242.831 239.543C242.219 239.543 241.611 239.657 241.04 239.88L232.405 221.657C232.94 220.85 233.226 219.903 233.227 218.936C233.225 218.578 233.184 218.222 233.105 217.874L238.668 209.533C239.159 209.692 239.671 209.773 240.187 209.774C240.994 209.773 241.789 209.575 242.501 209.197C243.214 208.818 243.823 208.271 244.275 207.602L262.067 208.93C262.44 209.83 263.071 210.6 263.882 211.142C264.692 211.685 265.645 211.975 266.62 211.976C267.929 211.976 269.184 211.456 270.109 210.531C271.035 209.606 271.555 208.352 271.555 207.044C271.554 206.898 271.546 206.752 271.532 206.607L281.52 190.773C282.642 190.587 283.665 190.02 284.417 189.166H293.809C294.189 190.054 294.82 190.811 295.626 191.343C296.431 191.875 297.376 192.16 298.341 192.161C299.65 192.161 300.905 191.641 301.83 190.716C302.755 189.791 303.275 188.537 303.275 187.229C303.274 186.538 303.128 185.854 302.845 185.223C302.563 184.592 302.151 184.027 301.636 183.565L318.72 157.777C319.924 157.641 321.036 157.067 321.844 156.164C322.651 155.262 323.099 154.094 323.1 152.883C323.098 151.786 322.732 150.722 322.057 149.857C321.383 148.993 320.44 148.377 319.376 148.108L314.487 116.183C315.23 115.749 315.847 115.128 316.276 114.382C316.705 113.636 316.931 112.791 316.932 111.93C316.932 110.622 316.412 109.368 315.487 108.443C314.562 107.519 313.307 106.999 311.998 106.999C311.813 107.002 311.628 107.015 311.444 107.038L278.729 49.8152C279.221 49.0324 279.483 48.1269 279.485 47.2022C279.485 45.8943 278.965 44.6398 278.04 43.715C277.114 42.7901 275.859 42.2706 274.551 42.2706C273.671 42.2728 272.807 42.5101 272.05 42.9581L207.555 3.87908C207.315 2.78118 206.707 1.79813 205.831 1.09285C204.956 0.387573 203.867 0.00149406 202.742 0ZM197.983 6.22948C198.242 7.17379 198.776 8.01972 199.517 8.6596C200.258 9.29948 201.174 9.70432 202.146 9.82253L209.58 42.5831L139.781 8.67471C139.794 8.58138 139.805 8.48766 139.813 8.39372L197.983 6.22948ZM206.795 7.74305L266.918 44.1749L218.153 44.5264C217.74 43.7156 217.111 43.0348 216.335 42.5593C215.559 42.0837 214.667 41.832 213.756 41.8319C213.574 41.8339 213.393 41.8456 213.212 41.8676L205.723 8.85758C206.136 8.54494 206.498 8.16834 206.795 7.74305ZM130.479 10.2038C130.755 10.7589 131.134 11.2569 131.595 11.6716L105.996 51.3137C105.512 51.1585 105.007 51.0791 104.498 51.078C103.595 51.079 102.709 51.3281 101.937 51.7979C101.165 52.2677 100.537 52.9402 100.122 53.7423L55.1373 45.7645C55.0864 45.5129 55.016 45.2656 54.9267 45.0251L130.479 10.2038ZM138.08 11.9607L203.284 43.6379L150.956 49.3788L138.08 11.9607ZM134.738 13.6247L147.185 49.7931L108.991 53.983C108.949 53.889 108.904 53.7964 108.857 53.7053L134.738 13.6247ZM208.06 46.8358L160.963 75.2353C160.556 74.9665 160.11 74.7596 159.642 74.6215L152.19 52.9644L208.06 46.8358ZM269.667 47.8545C269.792 48.7906 270.183 49.6711 270.795 50.3914L260.846 76.4348L218.458 48.253C218.461 48.2423 218.465 48.2314 218.468 48.2206L269.667 47.8545ZM54.4711 49.4039L99.7823 57.4409C99.9353 57.9442 100.168 58.4197 100.471 58.8496L63.9637 96.4557C63.8189 96.4385 63.6734 96.4276 63.5276 96.4233C63.2157 96.4251 62.9048 96.4566 62.5988 96.517C62.3274 95.1068 62.073 93.7719 61.7026 91.9069C60.6273 86.4918 59.1956 79.444 57.7634 72.452C55.8926 63.3182 54.3491 55.863 53.2762 50.6911C53.749 50.3345 54.1538 49.8958 54.4711 49.3958V49.4039ZM209.026 50.5719L187.039 117.273C186.553 117.392 186.088 117.583 185.659 117.841L161.787 82.7743C162.679 81.8563 163.178 80.628 163.181 79.3488C163.179 78.9925 163.138 78.6375 163.059 78.2901L209.026 50.5719ZM216.075 51.1113L259.492 79.9784L246.475 114.053C246.436 114.052 246.396 114.052 246.356 114.053C245.747 114.053 245.143 114.166 244.575 114.386L215.997 51.1635C216.023 51.1486 216.049 51.1336 216.075 51.1183L216.075 51.1113ZM48.5745 51.3728C48.9358 51.5089 49.3118 51.6021 49.6948 51.6505C50.7755 56.8622 52.3009 64.2351 54.1375 73.2016C55.5689 80.1901 57.0006 87.234 58.073 92.6349C58.3787 94.1747 58.5713 95.1951 58.8103 96.4275L22.57 78.4981C22.474 77.96 22.2892 77.4417 22.0231 76.9642L25.7996 72.9248L48.5745 51.3728ZM275.712 51.992L307.373 107.371L264.004 78.5362L274.098 52.1133C274.249 52.131 274.4 52.1419 274.552 52.1457C274.943 52.1444 275.332 52.0967 275.712 52.0036V51.992ZM212.394 52.1729L241.745 117.102L192.832 120.361C192.444 119.308 191.708 118.419 190.747 117.84L212.394 52.1729ZM148.418 53.3768L155.87 75.0317C155.322 75.3322 154.836 75.7343 154.438 76.2163L110.572 57.5283L148.418 53.3768ZM107.218 60.1207L153.179 79.6994L127.444 94.0265C126.564 93.3061 125.462 92.9118 124.324 92.9104C124.207 92.9063 124.091 92.9063 123.974 92.9104L107.209 60.1159C107.212 60.1159 107.215 60.1159 107.219 60.1159L107.218 60.1207ZM103.512 61.0272L120.653 94.5552C119.841 95.4582 119.392 96.6285 119.39 97.8421C119.391 98.938 119.756 100.003 120.43 100.868L96.4177 139.16C96.3214 139.157 96.2249 139.157 96.1286 139.16C95.4778 139.161 94.8339 139.291 94.2337 139.543L67.2378 104.625C68.0256 103.726 68.4605 102.573 68.4617 101.378C68.4609 100.25 68.0732 99.1562 67.3631 98.2792L103.512 61.0418L103.512 61.0272ZM262.651 82.0776L306.761 111.405L250.06 115.038L262.651 82.0776ZM21.7244 82.2068L57.1719 99.7426L7.98793 125.678C7.51862 125.306 6.98552 125.023 6.41469 124.842L17.7491 84.2778C18.5282 84.2708 19.2947 84.0795 19.9856 83.7195C20.6766 83.3595 21.2724 82.8412 21.7244 82.2068ZM154.909 82.9703C155.818 83.8095 157.009 84.2766 158.247 84.2791C158.276 84.2793 158.305 84.2793 158.335 84.2791L183.373 121.062C183.304 121.391 183.27 121.727 183.269 122.063C183.271 122.462 183.321 122.859 183.419 123.246L166.595 148.836C166.184 148.839 165.776 148.893 165.379 148.998L128.491 100.475C128.99 99.6886 129.256 98.7772 129.258 97.8462C129.256 97.6558 129.243 97.4656 129.218 97.2768L154.908 82.9751L154.909 82.9703ZM125.484 102.629L162.41 151.2C162.375 151.254 162.342 151.309 162.309 151.365L100.889 142.787C100.684 142.035 100.303 141.342 99.7775 140.765L123.637 102.72C123.864 102.755 124.094 102.773 124.324 102.775C124.715 102.773 125.105 102.723 125.484 102.629ZM58.7175 103.109L40.7239 142.384C39.9176 142.589 39.1762 142.994 38.5688 143.562L9.86356 129.388C9.85704 129.223 9.84216 129.058 9.81898 128.893L58.7175 103.109ZM61.2051 106.563L70.2856 167.452L46.3604 149.339C46.6969 148.661 46.8729 147.915 46.8747 147.159C46.8736 146.318 46.6573 145.491 46.2463 144.757C45.8354 144.023 45.2435 143.406 44.5269 142.965L61.2051 106.563ZM65.1575 107.968L91.5847 142.152C91.3269 142.761 91.1942 143.416 91.1944 144.077C91.196 145.254 91.6186 146.391 92.3858 147.284C93.1531 148.176 94.2144 148.765 95.3781 148.944L112.402 197.612C112.007 197.867 111.65 198.178 111.343 198.534L74.503 170.645L65.1575 107.968ZM307.939 115.037L297.186 142.223L251.276 119.279C251.283 119.179 251.288 119.078 251.289 118.978C251.289 118.875 251.286 118.772 251.279 118.669L307.939 115.037ZM310.946 117.495L315.709 148.612C314.914 149.067 314.262 149.735 313.825 150.54L300.508 143.884L310.946 117.495ZM241.197 120.846L234.639 162.73L192.676 124.13C192.685 124.114 192.694 124.097 192.702 124.08L241.197 120.846ZM244.519 123.551C245.103 123.787 245.727 123.909 246.356 123.91C246.84 123.909 247.322 123.836 247.785 123.695L274.664 159.204L239.681 164.784C239.258 164.366 238.762 164.029 238.219 163.788L244.519 123.551ZM252.785 124.169L295.82 145.675L291.534 156.512L278.803 158.542L252.785 124.169ZM189.967 126.663L232.169 165.487C231.597 166.311 231.29 167.291 231.29 168.295C231.291 168.345 231.293 168.395 231.296 168.445L197.656 188.835C197.058 188.303 196.34 187.924 195.563 187.731L188.888 126.937C189.258 126.886 189.619 126.796 189.967 126.663ZM185.199 127.272L191.702 186.485L170.758 156.436C171.274 155.64 171.549 154.712 171.551 153.763C171.55 153.111 171.42 152.466 171.168 151.865C170.917 151.264 170.548 150.719 170.085 150.261L185.199 127.272ZM8.56615 132.875L37.0184 146.922C37.0122 147 37.0079 147.08 37.0055 147.159C37.0079 148.335 37.4309 149.472 38.1981 150.364L25.3531 175.702C25.2552 175.711 25.1576 175.723 25.0604 175.737L7.71 133.621C8.02256 133.408 8.30955 133.16 8.56531 132.881L8.56615 132.875ZM100.447 146.458L161.289 154.956L137.497 180.411C136.947 180.204 136.365 180.097 135.778 180.095C134.578 180.097 133.42 180.537 132.521 181.331L100.439 146.471C100.442 146.471 100.445 146.471 100.448 146.471L100.447 146.458ZM299.142 147.336L311.22 153.372L295.781 155.834L299.142 147.336ZM100.287 151.769L130.846 184.976C130.845 184.993 130.844 185.01 130.844 185.027C130.846 185.564 130.937 186.098 131.111 186.606L118.169 197.926C117.562 197.435 116.849 197.096 116.086 196.935L100.287 151.769ZM43.515 151.827L71.0662 172.683L73.4273 188.515C73.0129 188.812 72.6472 189.172 72.3431 189.582L30.5351 180.051C30.3931 178.838 29.8059 177.721 28.8871 176.916L41.4828 152.067C41.6347 152.086 41.7875 152.098 41.9405 152.103C42.4763 152.101 43.0081 152.011 43.515 151.838V151.827ZM314.861 156.538C314.911 156.586 314.962 156.632 315.013 156.678L298.03 182.312C297.661 182.335 297.296 182.4 296.941 182.505L289.251 172.346L294.199 159.834L314.861 156.538ZM163.281 158.244L158.462 187.786C157.679 188.229 157.031 188.877 156.589 189.661L140.649 184.255C140.574 183.788 140.432 183.334 140.228 182.907L163.281 158.244ZM167.73 158.563L189.691 190.073L165.69 190.962C165.493 190.112 165.074 189.329 164.476 188.694C163.878 188.059 163.122 187.594 162.285 187.346L166.959 158.684C167.218 158.665 167.476 158.623 167.73 158.563ZM289.952 160.51L286.637 168.891L281.334 161.885L289.952 160.51ZM277.194 162.546L285.044 172.918L281.807 181.103C281.451 181.021 281.086 180.979 280.72 180.977C280.007 180.978 279.303 181.132 278.657 181.43C278.01 181.728 277.435 182.163 276.972 182.704L244.19 167.81L277.194 162.546ZM242.051 170.901L275.796 186.232C275.844 186.936 276.042 187.622 276.377 188.243C276.712 188.864 277.177 189.406 277.739 189.832L269.437 202.996C268.611 202.422 267.628 202.114 266.622 202.114C266.362 202.115 266.102 202.136 265.846 202.178L242.051 170.901ZM232.815 171.852C233.392 172.405 234.094 172.81 234.862 173.031L237.385 200.792C236.729 201.244 236.192 201.85 235.821 202.555C235.45 203.261 235.255 204.046 235.254 204.843C235.255 205.641 235.45 206.426 235.822 207.131L230.785 214.682C230.03 214.239 229.17 214.004 228.294 214.002C227.301 214.004 226.332 214.305 225.514 214.866L199.007 194.186C199.203 193.65 199.304 193.084 199.306 192.514C199.305 192.399 199.301 192.284 199.293 192.169L232.815 171.852ZM238.672 172.571L262.665 204.108C262.41 204.451 262.201 204.824 262.043 205.22L245.04 203.951C244.856 202.96 244.373 202.049 243.657 201.341C242.94 200.632 242.023 200.16 241.029 199.988L238.542 172.645C238.585 172.62 238.629 172.597 238.672 172.571ZM75.2824 175.876L105.221 198.54L81.1888 191.868C81.0478 190.81 80.5668 189.826 79.8183 189.064C79.0697 188.302 78.0939 187.803 77.0376 187.643L75.2824 175.876ZM287.658 176.371L294.046 184.809C293.928 185.021 293.825 185.242 293.739 185.469H285.631C285.562 184.704 285.316 183.966 284.912 183.314L287.658 176.371ZM189.605 193.778C189.854 194.713 190.373 195.555 191.098 196.198C191.823 196.84 192.721 197.255 193.68 197.391L195.57 226.344L165.026 194.752C165.04 194.729 165.054 194.707 165.068 194.684L189.605 193.778ZM197.403 197.628L223.458 217.954C223.393 218.277 223.36 218.605 223.36 218.934C223.36 219.052 223.364 219.169 223.373 219.286L202.447 227.533C201.622 226.612 200.481 226.034 199.25 225.914L197.403 197.628ZM225.016 222.615C225.198 222.777 225.392 222.926 225.597 223.06L222.216 232.069C221.493 232.121 220.789 232.332 220.157 232.688C219.524 233.043 218.977 233.533 218.556 234.123L203.671 231.418C203.686 231.284 203.696 231.15 203.7 231.016L225.016 222.615ZM229.306 223.755L237.021 240.035L227.474 236.508C227.349 235.225 226.727 234.041 225.74 233.211L229.286 223.76C229.293 223.76 229.299 223.76 229.306 223.76L229.306 223.755ZM205.222 235.46L217.692 237.726C217.887 239.007 218.579 240.159 219.618 240.934L219.048 245.346C218.445 245.455 217.868 245.676 217.346 245.997L205.222 235.46ZM226.418 240.062L237.159 244.03L223.626 246.948C223.348 246.629 223.031 246.348 222.681 246.111L223.228 241.87C224.484 241.699 225.627 241.052 226.418 240.062Z" fill="black"/>
</svg>
