<svg width="88" height="72" viewBox="0 0 88 72" fill="none" xmlns="http://www.w3.org/2000/svg">
<path fill-rule="evenodd" clip-rule="evenodd" d="M0.00153234 0.824567C-0.00237366 0.773786 0.00153236 0.719097 0.00934436 0.664407C0.0679384 0.273787 0.407785 -0.0113715 0.802315 0.000348493L33.0013 0.871438C33.3177 0.87925 33.5951 1.07847 33.7083 1.37144C33.8216 1.66832 33.7474 2.00035 33.5169 2.2191L27.8607 7.5785C27.9896 7.72694 28.06 7.92225 28.0482 8.13319L27.3607 19.4882C27.3373 19.9179 26.9662 20.246 26.5326 20.2226C26.1771 20.1991 25.892 19.9452 25.8178 19.6171C25.7123 19.6327 25.6068 19.6249 25.5014 19.5937L16.9545 17.121C16.9427 17.1171 16.931 17.1131 16.9193 17.1092L12.1341 21.453C11.9544 21.6132 11.7122 21.6835 11.4779 21.6445C11.2396 21.6054 11.0364 21.457 10.9232 21.246L0.0951674 1.23801C0.0248544 1.1091 -0.00627766 0.965187 0.00153234 0.824567ZM26.4505 8.69567C26.3529 8.70739 26.2552 8.69957 26.1576 8.67223L6.32156 3.13703L20.5166 11.262C20.5244 11.2542 20.5361 11.2503 20.5439 11.2425C20.8994 11.0003 21.3877 11.0941 21.6298 11.4495L25.9071 17.7229L26.454 8.69953L26.4505 8.69567ZM18.2786 15.8754L23.8528 17.4887L21.0442 13.3676L18.2786 15.8754ZM7.10263 1.73437L26.1496 7.04687L31.0715 2.38277L7.10263 1.73437ZM19.6186 12.5504L2.77463 2.90587L11.8254 19.6249L19.6186 12.5504ZM41.4936 27.1284V26.8159C41.4936 26.3862 41.8452 26.0346 42.2749 26.0346C42.7046 26.0346 43.0561 26.3823 43.0561 26.8159C43.0561 27.3159 43.0757 27.8159 43.1108 28.3198C43.1421 28.7495 42.8218 29.1245 42.3921 29.1557C41.9819 29.187 41.6186 28.894 41.56 28.4916C41.4311 28.5698 41.2749 28.6166 41.1147 28.6088C40.5835 28.5854 40.0444 28.5424 39.5014 28.4799C39.0717 28.4291 38.7671 28.0424 38.8139 27.6127C38.8647 27.183 39.2514 26.8784 39.6811 26.9252C40.1889 26.9838 40.6889 27.0229 41.185 27.0463C41.2983 27.0541 41.4038 27.0815 41.4975 27.1284L41.4936 27.1284ZM58.9936 45.0664C59.1069 44.7461 59.4233 44.5234 59.7788 44.5468C60.2827 44.5781 60.7788 44.5859 61.2671 44.5703C61.6968 44.5547 62.0601 44.8945 62.0718 45.3281C62.0874 45.7578 61.7476 46.1211 61.314 46.1328C60.8999 46.1445 60.478 46.1445 60.0484 46.125C60.0757 46.4922 60.1187 46.8672 60.1773 47.2422C60.2437 47.6679 59.9507 48.0664 59.521 48.1328C59.0953 48.1992 58.6968 47.9062 58.6304 47.4804C58.5445 46.9297 58.4898 46.3866 58.4624 45.8515C58.4429 45.4961 58.6656 45.1797 58.9898 45.0703L58.9936 45.0664ZM26.3526 22.8364C26.0128 22.5707 25.9542 22.0786 26.2198 21.7387C26.4854 21.3988 26.9776 21.3402 27.3175 21.6059C27.7238 21.9262 28.13 22.2269 28.5402 22.516C28.8918 22.766 28.9777 23.2504 28.7277 23.6058C28.4777 23.9574 27.9933 24.0433 27.6418 23.7933C27.2121 23.4886 26.7824 23.1722 26.3566 22.8363L26.3526 22.8364ZM30.3565 25.4966C29.9776 25.2895 29.8409 24.813 30.0479 24.4341C30.2589 24.0591 30.7315 23.9184 31.1104 24.1294C31.5597 24.3794 32.0089 24.6059 32.4581 24.8208C32.8488 25.0083 33.0128 25.4731 32.8253 25.8638C32.6378 26.2544 32.173 26.4185 31.7823 26.231C31.3058 26.0044 30.8292 25.7583 30.3526 25.4966L30.3565 25.4966ZM34.7745 27.4341C34.3644 27.3013 34.1417 26.8559 34.2784 26.4497C34.4113 26.0395 34.8566 25.8169 35.2628 25.9497C35.7472 26.1098 36.2316 26.2505 36.712 26.3755C37.13 26.4848 37.38 26.9106 37.2745 27.3286C37.169 27.7465 36.7433 28.0005 36.3214 27.8911C35.8097 27.7583 35.2902 27.6059 34.7745 27.438L34.7745 27.4341ZM44.3409 28.5318C43.9112 28.5708 43.5284 28.2583 43.4894 27.8286C43.4503 27.399 43.7628 27.0161 44.1925 26.9771C44.7003 26.9302 45.1964 26.8638 45.6886 26.7818C46.1144 26.7115 46.5167 27.0005 46.587 27.4224C46.6573 27.8482 46.3683 28.2505 45.9425 28.3208C45.4191 28.4068 44.8839 28.4771 44.3409 28.5318ZM49.087 27.5708C48.6769 27.6997 48.2355 27.4693 48.1066 27.0591C47.9777 26.6489 48.2081 26.2075 48.6183 26.0786C49.1027 25.9263 49.5792 25.7583 50.0402 25.5786C50.4425 25.4224 50.8956 25.6177 51.0519 26.02C51.2081 26.4224 51.0128 26.8755 50.6105 27.0357C50.1144 27.231 49.6066 27.4106 49.0871 27.5747L49.087 27.5708ZM53.5323 25.6333C53.1573 25.8482 52.6808 25.7193 52.4659 25.3443C52.2511 24.9693 52.38 24.4927 52.755 24.2779C53.1964 24.024 53.6222 23.7583 54.0284 23.481C54.3839 23.2388 54.8721 23.3325 55.1143 23.688C55.3564 24.0435 55.2627 24.5318 54.9073 24.7739C54.4698 25.0747 54.0089 25.3599 53.5323 25.6333ZM57.4346 22.7153C57.126 23.0161 56.6299 23.0122 56.3291 22.7036C56.0283 22.395 56.0323 21.8989 56.3409 21.5981C56.7041 21.2426 57.0362 20.8794 57.3409 20.5122C57.6143 20.1802 58.1065 20.1294 58.4385 20.4028C58.7745 20.6763 58.8214 21.1685 58.5479 21.5044C58.212 21.9146 57.837 22.3208 57.4346 22.7153ZM60.294 18.6411C60.1339 19.0396 59.6768 19.2349 59.2784 19.0747C58.88 18.9146 58.6847 18.4575 58.8448 18.0591C59.0245 17.6099 59.1495 17.1685 59.212 16.7349C59.2745 16.3091 59.673 16.0123 60.0988 16.0748C60.5245 16.1373 60.8214 16.5357 60.7589 16.9615C60.6808 17.5123 60.5245 18.0747 60.294 18.6411ZM60.0518 13.4263C60.2862 13.7896 60.1808 14.274 59.8175 14.5044C59.4542 14.7388 58.9737 14.6333 58.7394 14.27C58.5206 13.9263 58.2237 13.6099 57.8566 13.3247C57.5167 13.0591 57.4542 12.5669 57.7198 12.227C57.9855 11.8872 58.4776 11.8286 58.8175 12.0903C59.3332 12.4927 59.7394 12.9419 60.0519 13.4223L60.0518 13.4263ZM55.7315 10.6372C56.1456 10.7505 56.3956 11.1802 56.2823 11.5982C56.169 12.0122 55.7394 12.2622 55.3214 12.145C55.1729 12.106 55.0206 12.0669 54.8644 12.0318C54.544 11.9615 54.2315 11.9068 53.919 11.8794C53.4894 11.8365 53.1769 11.4536 53.2159 11.024C53.2589 10.5943 53.6417 10.2818 54.0675 10.3208C54.4425 10.3599 54.8253 10.4185 55.2081 10.5083C55.3878 10.5474 55.5596 10.5943 55.7276 10.6372L55.7315 10.6372ZM50.6729 10.6763C51.0831 10.5474 51.5245 10.7739 51.6534 11.188C51.7823 11.5982 51.5558 12.0396 51.1417 12.1685C50.6964 12.3091 50.2589 12.4966 49.8409 12.7193C49.4581 12.9224 48.9854 12.7779 48.7823 12.3989C48.5792 12.02 48.7198 11.5474 49.1026 11.3404C49.6104 11.0708 50.1338 10.8482 50.6729 10.6763ZM46.4385 13.3677C46.7393 13.0591 47.2354 13.0552 47.544 13.3599C47.8526 13.6607 47.8565 14.1568 47.5558 14.4654C47.2198 14.8091 46.8995 15.1763 46.5948 15.5748C46.3331 15.9185 45.8409 15.981 45.501 15.7154C45.1573 15.4537 45.0948 14.9615 45.3604 14.6216C45.7042 14.1763 46.0635 13.7583 46.4463 13.3716L46.4385 13.3677ZM43.6299 17.4029C43.8214 17.0162 44.2901 16.856 44.6768 17.0474C45.0636 17.2388 45.2237 17.7076 45.0323 18.0943C44.8136 18.5357 44.6104 18.9928 44.4268 19.4615C44.2706 19.8639 43.8175 20.0592 43.4151 19.9029C43.0128 19.7467 42.8136 19.2897 42.9737 18.8873C43.1769 18.3756 43.3956 17.8795 43.63 17.399L43.6299 17.4029ZM42.0283 21.9967C42.1221 21.5748 42.5401 21.3092 42.9619 21.4029C43.3838 21.4967 43.6494 21.9147 43.5557 22.3365C43.4463 22.8209 43.3565 23.317 43.2822 23.817C43.2197 24.2428 42.8213 24.5397 42.3955 24.4772C41.9697 24.4147 41.6729 24.0163 41.7354 23.5905C41.8135 23.0514 41.9151 22.5202 42.0322 21.9967L42.0283 21.9967ZM42.0518 31.6412C41.9541 31.2232 42.2119 30.8014 42.6338 30.7037C43.0518 30.6021 43.4736 30.8638 43.5752 31.2818C43.6885 31.7662 43.8252 32.2466 43.9815 32.7232C44.1143 33.1334 43.8916 33.5748 43.4815 33.7076C43.0713 33.8404 42.6299 33.6177 42.4971 33.2076C42.3291 32.692 42.1807 32.1685 42.0557 31.6412H42.0518ZM43.7666 36.2037C43.5635 35.8248 43.708 35.3521 44.0869 35.149C44.4658 34.9459 44.9385 35.0904 45.1416 35.4693C45.376 35.9068 45.6299 36.3326 45.9033 36.7505C46.1416 37.1099 46.04 37.5943 45.6806 37.8325C45.3213 38.0708 44.8369 37.9692 44.5986 37.6098C44.2979 37.1528 44.0205 36.6841 43.7627 36.2036L43.7666 36.2037ZM46.6455 40.1568C46.3447 39.8443 46.3564 39.3521 46.665 39.0513C46.9736 38.7505 47.4697 38.7583 47.7705 39.0669C48.1104 39.4185 48.4736 39.7622 48.8564 40.0903C49.1845 40.3716 49.2197 40.8638 48.9384 41.1919C48.6572 41.5201 48.165 41.5552 47.8368 41.2739C47.4189 40.9146 47.0243 40.5396 46.6493 40.1528L46.6455 40.1568ZM50.4814 43.1763C50.1103 42.9575 49.9892 42.4732 50.2079 42.106C50.4306 41.7349 50.9111 41.6138 51.2782 41.8326C51.7001 42.0826 52.1376 42.3208 52.5985 42.5474C52.9853 42.7349 53.1454 43.2036 52.954 43.5943C52.7626 43.981 52.2938 44.1412 51.9071 43.9498C51.411 43.7076 50.9384 43.4498 50.4774 43.1763L50.4814 43.1763ZM54.9111 45.1607C54.5009 45.0279 54.2744 44.5865 54.4111 44.1763C54.5439 43.7661 54.9853 43.5435 55.3955 43.6763C55.622 43.7505 55.8525 43.8208 56.0869 43.8872C56.3408 43.9615 56.5908 44.0279 56.8408 44.0904C57.2587 44.1919 57.5166 44.6177 57.415 45.0357C57.3134 45.4536 56.8877 45.7115 56.4697 45.6099C56.2002 45.5435 55.9267 45.4693 55.6494 45.3911C55.3994 45.3208 55.1533 45.2427 54.9111 45.1646L54.9111 45.1607ZM64.5673 45.7154C64.1454 45.8091 63.7274 45.5474 63.6298 45.1294C63.5321 44.7076 63.7978 44.2896 64.2157 44.1919C64.7079 44.0787 65.1845 43.9459 65.6454 43.7896C66.0556 43.6529 66.497 43.8755 66.6337 44.2818C66.7704 44.6919 66.5478 45.1333 66.1415 45.2701C65.6337 45.4419 65.1063 45.5904 64.5634 45.7154H64.5673ZM69.1298 43.9302C68.7548 44.145 68.2782 44.0161 68.0634 43.6411C67.8485 43.2661 67.9774 42.7896 68.3524 42.5747C68.7899 42.3247 69.204 42.0552 69.5985 41.77C69.9501 41.52 70.4345 41.5981 70.6883 41.9497C70.9383 42.3013 70.8602 42.7896 70.5087 43.0395C70.0712 43.352 69.6102 43.6489 69.1259 43.9301L69.1298 43.9302ZM72.9579 40.8443C72.6727 41.1646 72.1766 41.1958 71.8563 40.9107C71.536 40.6255 71.5047 40.1294 71.7938 39.8091C72.1258 39.4341 72.4266 39.0474 72.6922 38.6607C72.9344 38.3013 73.4188 38.2076 73.7781 38.4497C74.1375 38.6919 74.2312 39.1763 73.9891 39.5356C73.6883 39.9771 73.3484 40.4185 72.9657 40.8481L72.9579 40.8443ZM75.3837 36.4381C75.2899 36.86 74.8681 37.1256 74.4501 37.0318C74.0282 36.9381 73.7626 36.5162 73.8603 36.0982C73.9618 35.6451 74.0009 35.2037 73.9618 34.7935C73.9228 34.3638 74.2353 33.981 74.6649 33.942C75.0946 33.9029 75.4774 34.2154 75.5165 34.6451C75.5712 35.2154 75.5243 35.817 75.3876 36.442L75.3837 36.4381ZM73.5946 31.4811C73.9579 31.7155 74.0633 32.1998 73.829 32.5592C73.5946 32.9225 73.1102 33.0279 72.7509 32.7936C72.4149 32.5787 72.0126 32.4068 71.54 32.2857C71.1259 32.1764 70.8759 31.7506 70.9853 31.3326C71.0946 30.9147 71.5204 30.6647 71.9384 30.774C72.5868 30.942 73.1337 31.1842 73.5946 31.4772L73.5946 31.4811ZM68.5751 30.528C69.0048 30.4928 69.3798 30.8131 69.4149 31.2428C69.4501 31.6725 69.1298 32.0514 68.7001 32.0865C68.2743 32.1217 67.8368 32.2233 67.3915 32.3912C66.9852 32.5397 66.536 32.3326 66.3876 31.9303C66.2391 31.524 66.4423 31.0748 66.8485 30.9264C67.4345 30.7077 68.0165 30.5748 68.5751 30.5319L68.5751 30.528ZM63.9501 32.6569C64.2821 32.3795 64.7743 32.4225 65.0517 32.7545C65.329 33.0826 65.2861 33.5787 64.954 33.8561C64.5907 34.1608 64.2353 34.4967 63.8915 34.8639C63.5986 35.1803 63.1025 35.1959 62.7899 34.903C62.4735 34.61 62.4579 34.1139 62.7509 33.8014C63.1415 33.3834 63.5399 33.0045 63.954 32.6608L63.9501 32.6569ZM60.7821 36.4303C61.0008 36.0592 61.4813 35.9381 61.8524 36.1568C62.2235 36.3756 62.3446 36.856 62.1258 37.2271C61.8758 37.6451 61.6453 38.0826 61.4305 38.5396C61.2469 38.9302 60.7821 39.0982 60.3914 38.9146C60.0008 38.731 59.8328 38.2662 60.0164 37.8755C60.2508 37.3716 60.5086 36.8872 60.7859 36.4263L60.7821 36.4303ZM58.9227 40.9655C59.0242 40.5475 59.45 40.2897 59.868 40.3951C60.286 40.4967 60.5438 40.9225 60.4383 41.3405C60.3211 41.8131 60.2274 42.3014 60.157 42.7975C60.0945 43.2232 59.7 43.5201 59.2742 43.4615C58.8485 43.399 58.5516 43.0045 58.6102 42.5787C58.6883 42.0318 58.7938 41.4928 58.9227 40.9693V40.9655ZM59.4305 50.6413C59.2899 50.235 59.5008 49.7897 59.911 49.6452C60.3172 49.5045 60.7625 49.7155 60.907 50.1217C61.0672 50.5827 61.2508 51.0436 61.4617 51.5123C61.6414 51.9029 61.4617 52.3678 61.0711 52.5435C60.6766 52.7193 60.2156 52.5435 60.0359 52.1529C59.8094 51.6451 59.6063 51.1413 59.4305 50.6413ZM61.5946 54.9968C61.3602 54.6374 61.4618 54.153 61.8211 53.9148C62.1805 53.6804 62.6649 53.7819 62.9031 54.1413C63.1727 54.5554 63.4578 54.9655 63.7703 55.3757C64.0281 55.7195 63.9617 56.2117 63.6141 56.4695C63.2703 56.7273 62.7782 56.6609 62.5203 56.3133C62.1883 55.8719 61.8797 55.4305 61.5906 54.993L61.5946 54.9968ZM64.6141 58.7624C64.3133 58.4499 64.325 57.9577 64.6375 57.6569C64.95 57.36 65.4422 57.3678 65.743 57.6803C66.0868 58.0358 66.4461 58.3951 66.825 58.7506C67.1375 59.0475 67.1532 59.5397 66.8602 59.8561C66.5633 60.1686 66.0711 60.1842 65.7547 59.8913C65.3562 59.5163 64.9773 59.1413 64.6141 58.7663V58.7624ZM68.1532 61.9655C67.8212 61.692 67.7743 61.1959 68.0516 60.8639C68.3251 60.5318 68.8172 60.4889 69.1532 60.7623C69.5673 61.1061 69.9657 61.4342 70.3524 61.7467C70.6884 62.0162 70.7391 62.5084 70.4696 62.8444C70.2001 63.1803 69.7079 63.235 69.3719 62.9616C68.9813 62.6452 68.575 62.3131 68.1531 61.9616L68.1532 61.9655ZM71.8915 64.8874C71.5399 64.6374 71.4579 64.1491 71.7079 63.7976C71.9579 63.446 72.4462 63.364 72.7977 63.614C73.2235 63.9148 73.6415 64.1999 74.0594 64.4655C74.4227 64.6999 74.5281 65.1804 74.2938 65.5436C74.0633 65.9069 73.5789 66.0124 73.2157 65.7819C72.7743 65.5007 72.3368 65.2038 71.8876 64.8835L71.8915 64.8874ZM76.0243 67.3562C75.6376 67.1687 75.4735 66.6999 75.661 66.3132C75.8485 65.9264 76.3173 65.7624 76.704 65.9499C77.1493 66.1647 77.6103 66.3718 78.0907 66.5788C78.4892 66.7468 78.6727 67.2038 78.5048 67.6022C78.3368 68.0006 77.8798 68.1842 77.4814 68.0163C76.9736 67.8014 76.4892 67.5827 76.0205 67.3561L76.0243 67.3562ZM80.4579 69.1374C80.0516 68.9967 79.8329 68.5553 79.9735 68.1452C80.1141 67.7389 80.5555 67.5202 80.9657 67.6608C81.4305 67.8209 81.9188 67.9811 82.4345 68.1452C82.8447 68.278 83.0712 68.7155 82.9423 69.1296C82.8095 69.5397 82.372 69.7663 81.9618 69.6374C81.4384 69.4694 80.9384 69.3053 80.4618 69.1452L80.4579 69.1374ZM84.9657 70.5436C84.5516 70.4225 84.3134 69.9889 84.4344 69.5748C84.5555 69.1608 84.9891 68.9225 85.4032 69.0436C85.8798 69.1842 86.3798 69.3287 86.8993 69.4771C87.3134 69.5943 87.5555 70.0279 87.4384 70.442C87.3212 70.8561 86.8876 71.0982 86.4735 70.9811C85.9501 70.8326 85.4501 70.6842 84.9657 70.5436Z" fill="black"/>
</svg>
